<svg width="244" height="74" viewBox="0 0 244 74" fill="none" xmlns="http://www.w3.org/2000/svg">
<path d="M29.1681 5.62941C31.1545 3.42064 34.6172 3.42064 36.6036 5.62941L61.42 33.224C63.1297 35.1251 63.1297 38.0098 61.42 39.9109L36.6036 67.5055C34.6172 69.7143 31.1545 69.7143 29.1681 67.5055L4.35172 39.9109C2.64202 38.0098 2.64202 35.1251 4.35172 33.224L29.1681 5.62941Z" stroke="#00FFF0" stroke-width="2"/>
<path d="M19.156 38.4205C19.156 36.2019 19.636 34.2285 20.596 32.5005C21.556 30.7512 22.8893 29.3965 24.596 28.4365C26.324 27.4552 28.276 26.9645 30.452 26.9645C33.1187 26.9645 35.4013 27.6685 37.3 29.0765C39.1987 30.4845 40.468 32.4045 41.108 34.8365H35.092C34.644 33.8979 34.004 33.1832 33.172 32.6925C32.3613 32.2019 31.4333 31.9565 30.388 31.9565C28.7027 31.9565 27.3373 32.5432 26.292 33.7165C25.2467 34.8899 24.724 36.4579 24.724 38.4205C24.724 40.3832 25.2467 41.9512 26.292 43.1245C27.3373 44.2979 28.7027 44.8845 30.388 44.8845C31.4333 44.8845 32.3613 44.6392 33.172 44.1485C34.004 43.6579 34.644 42.9432 35.092 42.0045H41.108C40.468 44.4365 39.1987 46.3565 37.3 47.7645C35.4013 49.1512 33.1187 49.8445 30.452 49.8445C28.276 49.8445 26.324 49.3645 24.596 48.4045C22.8893 47.4232 21.556 46.0685 20.596 44.3405C19.636 42.6125 19.156 40.6392 19.156 38.4205ZM51.211 26.0045V49.6845H45.739V26.0045H51.211ZM55.3685 40.7245C55.3685 38.8899 55.7098 37.2792 56.3925 35.8925C57.0965 34.5059 58.0458 33.4392 59.2405 32.6925C60.4352 31.9459 61.7685 31.5725 63.2405 31.5725C64.4992 31.5725 65.5978 31.8285 66.5365 32.3405C67.4965 32.8525 68.2325 33.5245 68.7445 34.3565V31.8285H74.2165V49.6845H68.7445V47.1565C68.2112 47.9885 67.4645 48.6605 66.5045 49.1725C65.5658 49.6845 64.4672 49.9405 63.2085 49.9405C61.7578 49.9405 60.4352 49.5672 59.2405 48.8205C58.0458 48.0525 57.0965 46.9752 56.3925 45.5885C55.7098 44.1805 55.3685 42.5592 55.3685 40.7245ZM68.7445 40.7565C68.7445 39.3912 68.3605 38.3139 67.5925 37.5245C66.8458 36.7352 65.9285 36.3405 64.8405 36.3405C63.7525 36.3405 62.8245 36.7352 62.0565 37.5245C61.3098 38.2925 60.9365 39.3592 60.9365 40.7245C60.9365 42.0899 61.3098 43.1779 62.0565 43.9885C62.8245 44.7779 63.7525 45.1725 64.8405 45.1725C65.9285 45.1725 66.8458 44.7779 67.5925 43.9885C68.3605 43.1992 68.7445 42.1219 68.7445 40.7565ZM86.7193 49.9405C85.1619 49.9405 83.7753 49.6739 82.5593 49.1405C81.3433 48.6072 80.3833 47.8819 79.6793 46.9645C78.9753 46.0259 78.5806 44.9805 78.4953 43.8285H83.9033C83.9673 44.4472 84.2553 44.9485 84.7673 45.3325C85.2793 45.7165 85.9086 45.9085 86.6553 45.9085C87.3379 45.9085 87.8606 45.7805 88.2233 45.5245C88.6073 45.2472 88.7993 44.8952 88.7993 44.4685C88.7993 43.9565 88.5326 43.5832 87.9993 43.3485C87.4659 43.0925 86.6019 42.8152 85.4073 42.5165C84.1273 42.2179 83.0606 41.9085 82.2073 41.5885C81.3539 41.2472 80.6179 40.7245 79.9993 40.0205C79.3806 39.2952 79.0713 38.3245 79.0713 37.1085C79.0713 36.0845 79.3486 35.1565 79.9033 34.3245C80.4793 33.4712 81.3113 32.7992 82.3993 32.3085C83.5086 31.8179 84.8206 31.5725 86.3353 31.5725C88.5753 31.5725 90.3353 32.1272 91.6153 33.2365C92.9166 34.3459 93.6633 35.8179 93.8553 37.6525H88.7993C88.7139 37.0339 88.4366 36.5432 87.9673 36.1805C87.5193 35.8179 86.9219 35.6365 86.1753 35.6365C85.5353 35.6365 85.0446 35.7645 84.7033 36.0205C84.3619 36.2552 84.1913 36.5859 84.1913 37.0125C84.1913 37.5245 84.4579 37.9085 84.9913 38.1645C85.5459 38.4205 86.3993 38.6765 87.5513 38.9325C88.8739 39.2739 89.9513 39.6152 90.7833 39.9565C91.6153 40.2765 92.3406 40.8099 92.9593 41.5565C93.5993 42.2819 93.9299 43.2632 93.9513 44.5005C93.9513 45.5459 93.6526 46.4845 93.0553 47.3165C92.4793 48.1272 91.6366 48.7672 90.5273 49.2365C89.4393 49.7059 88.1699 49.9405 86.7193 49.9405ZM105.843 49.9405C104.286 49.9405 102.899 49.6739 101.683 49.1405C100.467 48.6072 99.507 47.8819 98.803 46.9645C98.099 46.0259 97.7043 44.9805 97.619 43.8285H103.027C103.091 44.4472 103.379 44.9485 103.891 45.3325C104.403 45.7165 105.032 45.9085 105.779 45.9085C106.462 45.9085 106.984 45.7805 107.347 45.5245C107.731 45.2472 107.923 44.8952 107.923 44.4685C107.923 43.9565 107.656 43.5832 107.123 43.3485C106.59 43.0925 105.726 42.8152 104.531 42.5165C103.251 42.2179 102.184 41.9085 101.331 41.5885C100.478 41.2472 99.7417 40.7245 99.123 40.0205C98.5043 39.2952 98.195 38.3245 98.195 37.1085C98.195 36.0845 98.4723 35.1565 99.027 34.3245C99.603 33.4712 100.435 32.7992 101.523 32.3085C102.632 31.8179 103.944 31.5725 105.459 31.5725C107.699 31.5725 109.459 32.1272 110.739 33.2365C112.04 34.3459 112.787 35.8179 112.979 37.6525H107.923C107.838 37.0339 107.56 36.5432 107.091 36.1805C106.643 35.8179 106.046 35.6365 105.299 35.6365C104.659 35.6365 104.168 35.7645 103.827 36.0205C103.486 36.2552 103.315 36.5859 103.315 37.0125C103.315 37.5245 103.582 37.9085 104.115 38.1645C104.67 38.4205 105.523 38.6765 106.675 38.9325C107.998 39.2739 109.075 39.6152 109.907 39.9565C110.739 40.2765 111.464 40.8099 112.083 41.5565C112.723 42.2819 113.054 43.2632 113.075 44.5005C113.075 45.5459 112.776 46.4845 112.179 47.3165C111.603 48.1272 110.76 48.7672 109.651 49.2365C108.563 49.7059 107.294 49.9405 105.843 49.9405ZM125.831 49.9085C124.188 49.9085 122.716 49.6419 121.415 49.1085C120.113 48.5752 119.068 47.7859 118.279 46.7405C117.511 45.6952 117.105 44.4365 117.063 42.9645H122.887C122.972 43.7965 123.26 44.4365 123.751 44.8845C124.241 45.3112 124.881 45.5245 125.671 45.5245C126.481 45.5245 127.121 45.3432 127.591 44.9805C128.06 44.5965 128.295 44.0739 128.295 43.4125C128.295 42.8579 128.103 42.3992 127.719 42.0365C127.356 41.6739 126.897 41.3752 126.343 41.1405C125.809 40.9059 125.041 40.6392 124.039 40.3405C122.588 39.8925 121.404 39.4445 120.487 38.9965C119.569 38.5485 118.78 37.8872 118.119 37.0125C117.457 36.1379 117.127 34.9965 117.127 33.5885C117.127 31.4979 117.884 29.8659 119.399 28.6925C120.913 27.4979 122.887 26.9005 125.319 26.9005C127.793 26.9005 129.788 27.4979 131.303 28.6925C132.817 29.8659 133.628 31.5085 133.735 33.6205H127.815C127.772 32.8952 127.505 32.3299 127.015 31.9245C126.524 31.4979 125.895 31.2845 125.127 31.2845C124.465 31.2845 123.932 31.4659 123.527 31.8285C123.121 32.1699 122.919 32.6712 122.919 33.3325C122.919 34.0579 123.26 34.6232 123.943 35.0285C124.625 35.4339 125.692 35.8712 127.143 36.3405C128.593 36.8312 129.767 37.3005 130.663 37.7485C131.58 38.1965 132.369 38.8472 133.031 39.7005C133.692 40.5539 134.023 41.6525 134.023 42.9965C134.023 44.2765 133.692 45.4392 133.031 46.4845C132.391 47.5299 131.452 48.3619 130.215 48.9805C128.977 49.5992 127.516 49.9085 125.831 49.9085ZM144.142 34.3565C144.676 33.5245 145.412 32.8525 146.35 32.3405C147.289 31.8285 148.388 31.5725 149.646 31.5725C151.118 31.5725 152.452 31.9459 153.646 32.6925C154.841 33.4392 155.78 34.5059 156.462 35.8925C157.166 37.2792 157.518 38.8899 157.518 40.7245C157.518 42.5592 157.166 44.1805 156.462 45.5885C155.78 46.9752 154.841 48.0525 153.646 48.8205C152.452 49.5672 151.118 49.9405 149.646 49.9405C148.409 49.9405 147.31 49.6845 146.35 49.1725C145.412 48.6605 144.676 47.9992 144.142 47.1885V58.1965H138.67V31.8285H144.142V34.3565ZM151.95 40.7245C151.95 39.3592 151.566 38.2925 150.798 37.5245C150.052 36.7352 149.124 36.3405 148.014 36.3405C146.926 36.3405 145.998 36.7352 145.23 37.5245C144.484 38.3139 144.11 39.3912 144.11 40.7565C144.11 42.1219 144.484 43.1992 145.23 43.9885C145.998 44.7779 146.926 45.1725 148.014 45.1725C149.102 45.1725 150.03 44.7779 150.798 43.9885C151.566 43.1779 151.95 42.0899 151.95 40.7245ZM172.645 31.6365C174.693 31.6365 176.336 32.3192 177.573 33.6845C178.81 35.0285 179.429 36.8845 179.429 39.2525V49.6845H173.989V39.9885C173.989 38.7939 173.68 37.8659 173.061 37.2045C172.442 36.5432 171.61 36.2125 170.565 36.2125C169.52 36.2125 168.688 36.5432 168.069 37.2045C167.45 37.8659 167.141 38.7939 167.141 39.9885V49.6845H161.669V26.0045H167.141V34.2285C167.696 33.4392 168.453 32.8099 169.413 32.3405C170.373 31.8712 171.45 31.6365 172.645 31.6365ZM201.344 40.4685C201.344 40.9805 201.312 41.5139 201.248 42.0685H188.864C188.949 43.1779 189.301 44.0312 189.92 44.6285C190.56 45.2045 191.338 45.4925 192.256 45.4925C193.621 45.4925 194.57 44.9165 195.104 43.7645H200.928C200.629 44.9379 200.085 45.9939 199.296 46.9325C198.528 47.8712 197.557 48.6072 196.384 49.1405C195.21 49.6739 193.898 49.9405 192.448 49.9405C190.698 49.9405 189.141 49.5672 187.776 48.8205C186.41 48.0739 185.344 47.0072 184.576 45.6205C183.808 44.2339 183.424 42.6125 183.424 40.7565C183.424 38.9005 183.797 37.2792 184.544 35.8925C185.312 34.5059 186.378 33.4392 187.744 32.6925C189.109 31.9459 190.677 31.5725 192.448 31.5725C194.176 31.5725 195.712 31.9352 197.056 32.6605C198.4 33.3859 199.445 34.4205 200.192 35.7645C200.96 37.1085 201.344 38.6765 201.344 40.4685ZM195.744 39.0285C195.744 38.0899 195.424 37.3432 194.784 36.7885C194.144 36.2339 193.344 35.9565 192.384 35.9565C191.466 35.9565 190.688 36.2232 190.048 36.7565C189.429 37.2899 189.045 38.0472 188.896 39.0285H195.744ZM210.982 34.8045C211.622 33.8232 212.422 33.0552 213.382 32.5005C214.342 31.9245 215.409 31.6365 216.582 31.6365V37.4285H215.078C213.713 37.4285 212.689 37.7272 212.006 38.3245C211.324 38.9005 210.982 39.9245 210.982 41.3965V49.6845H205.51V31.8285H210.982V34.8045ZM237.31 40.4685C237.31 40.9805 237.278 41.5139 237.214 42.0685H224.83C224.915 43.1779 225.267 44.0312 225.886 44.6285C226.526 45.2045 227.304 45.4925 228.222 45.4925C229.587 45.4925 230.536 44.9165 231.07 43.7645H236.894C236.595 44.9379 236.051 45.9939 235.262 46.9325C234.494 47.8712 233.523 48.6072 232.35 49.1405C231.176 49.6739 229.864 49.9405 228.414 49.9405C226.664 49.9405 225.107 49.5672 223.742 48.8205C222.376 48.0739 221.31 47.0072 220.542 45.6205C219.774 44.2339 219.39 42.6125 219.39 40.7565C219.39 38.9005 219.763 37.2792 220.51 35.8925C221.278 34.5059 222.344 33.4392 223.71 32.6925C225.075 31.9459 226.643 31.5725 228.414 31.5725C230.142 31.5725 231.678 31.9352 233.022 32.6605C234.366 33.3859 235.411 34.4205 236.158 35.7645C236.926 37.1085 237.31 38.6765 237.31 40.4685ZM231.71 39.0285C231.71 38.0899 231.39 37.3432 230.75 36.7885C230.11 36.2339 229.31 35.9565 228.35 35.9565C227.432 35.9565 226.654 36.2232 226.014 36.7565C225.395 37.2899 225.011 38.0472 224.862 39.0285H231.71Z" fill="white"/>
</svg>
